<svg aria-roledescription="er" role="graphics-document document" viewBox="-123.90628051757812 0 906.90625 640" style="max-width: 906.90625px;" xmlns="http://www.w3.org/2000/svg" width="906.90625" id="svg" height="640"><style>#svg{font-family:"trebuchet ms",verdana,arial,sans-serif;font-size:16px;fill:#333;}#svg .error-icon{fill:#552222;}#svg .error-text{fill:#552222;stroke:#552222;}#svg .edge-thickness-normal{stroke-width:2px;}#svg .edge-thickness-thick{stroke-width:3.5px;}#svg .edge-pattern-solid{stroke-dasharray:0;}#svg .edge-pattern-dashed{stroke-dasharray:3;}#svg .edge-pattern-dotted{stroke-dasharray:2;}#svg .marker{fill:#333333;stroke:#333333;}#svg .marker.cross{stroke:#333333;}#svg svg{font-family:"trebuchet ms",verdana,arial,sans-serif;font-size:16px;}#svg .entityBox{fill:#ECECFF;stroke:#9370DB;}#svg .attributeBoxOdd{fill:#ffffff;stroke:#9370DB;}#svg .attributeBoxEven{fill:#f2f2f2;stroke:#9370DB;}#svg .relationshipLabelBox{fill:hsl(80, 100%, 96.2745098039%);opacity:0.7;background-color:hsl(80, 100%, 96.2745098039%);}#svg .relationshipLabelBox rect{opacity:0.5;}#svg .relationshipLine{stroke:#333333;}#svg .entityTitleText{text-anchor:middle;font-size:18px;fill:#333;}#svg #MD_PARENT_START{fill:#f5f5f5!important;stroke:#333333!important;stroke-width:1;}#svg #MD_PARENT_END{fill:#f5f5f5!important;stroke:#333333!important;stroke-width:1;}#svg .today{display:none;}#svg .label foreignObject{overflow:visible;}#svg :root{--mermaid-font-family:"trebuchet ms",verdana,arial,sans-serif;}</style><g></g><defs><marker orient="auto" markerHeight="240" markerWidth="190" refY="7" refX="0" id="MD_PARENT_START"><path d="M 18,7 L9,13 L1,7 L9,1 Z"></path></marker></defs><defs><marker orient="auto" markerHeight="28" markerWidth="20" refY="7" refX="19" id="MD_PARENT_END"><path d="M 18,7 L9,13 L1,7 L9,1 Z"></path></marker></defs><defs><marker orient="auto" markerHeight="18" markerWidth="18" refY="9" refX="0" id="ONLY_ONE_START"><path d="M9,0 L9,18 M15,0 L15,18" fill="none" stroke="gray"></path></marker></defs><defs><marker orient="auto" markerHeight="18" markerWidth="18" refY="9" refX="18" id="ONLY_ONE_END"><path d="M3,0 L3,18 M9,0 L9,18" fill="none" stroke="gray"></path></marker></defs><defs><marker orient="auto" markerHeight="18" markerWidth="30" refY="9" refX="0" id="ZERO_OR_ONE_START"><circle r="6" cy="9" cx="21" fill="white" stroke="gray"></circle><path d="M9,0 L9,18" fill="none" stroke="gray"></path></marker></defs><defs><marker orient="auto" markerHeight="18" markerWidth="30" refY="9" refX="30" id="ZERO_OR_ONE_END"><circle r="6" cy="9" cx="9" fill="white" stroke="gray"></circle><path d="M21,0 L21,18" fill="none" stroke="gray"></path></marker></defs><defs><marker orient="auto" markerHeight="36" markerWidth="45" refY="18" refX="18" id="ONE_OR_MORE_START"><path d="M0,18 Q 18,0 36,18 Q 18,36 0,18 M42,9 L42,27" fill="none" stroke="gray"></path></marker></defs><defs><marker orient="auto" markerHeight="36" markerWidth="45" refY="18" refX="27" id="ONE_OR_MORE_END"><path d="M3,9 L3,27 M9,18 Q27,0 45,18 Q27,36 9,18" fill="none" stroke="gray"></path></marker></defs><defs><marker orient="auto" markerHeight="36" markerWidth="57" refY="18" refX="18" id="ZERO_OR_MORE_START"><circle r="6" cy="18" cx="48" fill="white" stroke="gray"></circle><path d="M0,18 Q18,0 36,18 Q18,36 0,18" fill="none" stroke="gray"></path></marker></defs><defs><marker orient="auto" markerHeight="36" markerWidth="57" refY="18" refX="39" id="ZERO_OR_MORE_END"><circle r="6" cy="18" cx="9" fill="white" stroke="gray"></circle><path d="M21,18 Q39,0 57,18 Q39,36 21,18" fill="none" stroke="gray"></path></marker></defs><path style="stroke: gray; fill: none;" marker-start="url(#ONLY_ONE_START)" marker-end="url(#ZERO_OR_MORE_END)" d="M270,95L270,103.333C270,111.667,270,128.333,270,145C270,161.667,270,178.333,270,186.667L270,195" class="er relationshipLine"></path><path style="stroke: gray; fill: none;" marker-start="url(#ONLY_ONE_START)" marker-end="url(#ONE_OR_MORE_END)" d="M213,246.75L164.167,258.958C115.333,271.167,17.667,295.583,-31.167,322.375C-80,349.167,-80,378.333,-80,407.5C-80,436.667,-80,465.833,-27.208,492.391C25.583,518.95,131.167,542.899,183.958,554.874L236.75,566.849" class="er relationshipLine"></path><path style="stroke: gray; fill: none;" marker-start="url(#ONLY_ONE_START)" marker-end="url(#ZERO_OR_MORE_END)" d="M327,244.333L387.75,256.944C448.5,269.555,570,294.778,630.75,315.722C691.5,336.667,691.5,353.333,691.5,361.667L691.5,370" class="er relationshipLine"></path><path style="stroke: gray; fill: none;" marker-start="url(#ONLY_ONE_START)" marker-end="url(#ONE_OR_MORE_END)" d="M691.5,445L691.5,453.333C691.5,461.667,691.5,478.333,638.708,498.641C585.917,518.95,480.333,542.899,427.542,554.874L374.75,566.849" class="er relationshipLine"></path><path style="stroke: gray; fill: none;" marker-start="url(#ONE_OR_MORE_START)" marker-end="url(#ONE_OR_MORE_END)" d="M213,257.438L189.167,267.865C165.333,278.292,117.667,299.146,93.833,317.906C70,336.667,70,353.333,70,361.667L70,370" class="er relationshipLine"></path><path style="stroke: gray; fill: none;" marker-start="url(#ONLY_ONE_START)" marker-end="url(#ONE_OR_MORE_END)" d="M270,270L270,278.333C270,286.667,270,303.333,270,320C270,336.667,270,353.333,270,361.667L270,370" class="er relationshipLine"></path><path style="stroke: gray; fill: none;" marker-start="url(#ONE_OR_MORE_START)" marker-end="url(#ONE_OR_MORE_END)" d="M327,257.438L350.833,267.865C374.667,278.292,422.333,299.146,446.167,317.906C470,336.667,470,353.333,470,361.667L470,370" class="er relationshipLine"></path><g transform="translate(220,20 )" id="entity-user-dad033c9-7a45-5f6a-ab5a-b5def405b2a6"><rect height="75" width="100" y="0" x="0" class="er entityBox"></rect><text style="dominant-baseline: middle; text-anchor: middle; font-size: 12px;" transform="translate(50,37.5)" y="0" x="0" id="text-entity-user-dad033c9-7a45-5f6a-ab5a-b5def405b2a6" class="er entityLabel">user</text></g><g transform="translate(213,195 )" id="entity-accountbook-4653c60b-f2b9-5f4b-9007-88adde81c6ae"><rect height="75" width="114" y="0" x="0" class="er entityBox"></rect><text style="dominant-baseline: middle; text-anchor: middle; font-size: 12px;" transform="translate(57,37.5)" y="0" x="0" id="text-entity-accountbook-4653c60b-f2b9-5f4b-9007-88adde81c6ae" class="er entityLabel">account_book</text></g><g transform="translate(236.75,545 )" id="entity-accountcategory-8f65992a-2ba6-5418-87f0-c0bc84b7e830"><rect height="75" width="138" y="0" x="0" class="er entityBox"></rect><text style="dominant-baseline: middle; text-anchor: middle; font-size: 12px;" transform="translate(69,37.5)" y="0" x="0" id="text-entity-accountcategory-8f65992a-2ba6-5418-87f0-c0bc84b7e830" class="er entityLabel">account_category</text></g><g transform="translate(620,370 )" id="entity-transactionrecord-aa758e9c-6b92-505e-a294-7f2e8b3a828e"><rect height="75" width="143" y="0" x="0" class="er entityBox"></rect><text style="dominant-baseline: middle; text-anchor: middle; font-size: 12px;" transform="translate(71.5,37.5)" y="0" x="0" id="text-entity-transactionrecord-aa758e9c-6b92-505e-a294-7f2e8b3a828e" class="er entityLabel">transaction_record</text></g><g transform="translate(20,370 )" id="entity-member-5230c3cb-c289-5426-8d7e-44f258f77a0a"><rect height="75" width="100" y="0" x="0" class="er entityBox"></rect><text style="dominant-baseline: middle; text-anchor: middle; font-size: 12px;" transform="translate(50,37.5)" y="0" x="0" id="text-entity-member-5230c3cb-c289-5426-8d7e-44f258f77a0a" class="er entityLabel">member</text></g><g transform="translate(220,370 )" id="entity-admin-15f14433-c0c1-57e4-af33-79134fb7fc21"><rect height="75" width="100" y="0" x="0" class="er entityBox"></rect><text style="dominant-baseline: middle; text-anchor: middle; font-size: 12px;" transform="translate(50,37.5)" y="0" x="0" id="text-entity-admin-15f14433-c0c1-57e4-af33-79134fb7fc21" class="er entityLabel">admin</text></g><g transform="translate(420,370 )" id="entity-creator-04da1f3c-d64c-5f75-a69a-eb2b85f2e221"><rect height="75" width="100" y="0" x="0" class="er entityBox"></rect><text style="dominant-baseline: middle; text-anchor: middle; font-size: 12px;" transform="translate(50,37.5)" y="0" x="0" id="text-entity-creator-04da1f3c-d64c-5f75-a69a-eb2b85f2e221" class="er entityLabel">creator</text></g><rect height="14" width="60" y="138" x="240" class="er relationshipLabelBox"></rect><text style="text-anchor: middle; dominant-baseline: middle; font-size: 12px;" y="145" x="270" id="rel1" class="er relationshipLabel">至少有一个</text><rect height="14" width="48" y="411.0791931152344" x="-103.90628051757812" class="er relationshipLabelBox"></rect><text style="text-anchor: middle; dominant-baseline: middle; font-size: 12px;" y="418.0791931152344" x="-79.90628051757812" id="rel2" class="er relationshipLabel">只有一个</text><rect height="14" width="24" y="279.450439453125" x="511.16888427734375" class="er relationshipLabelBox"></rect><text style="text-anchor: middle; dominant-baseline: middle; font-size: 12px;" y="286.450439453125" x="523.1688842773438" id="rel3" class="er relationshipLabel">多个</text><rect height="14" width="24" y="519.1873168945312" x="535.5301513671875" class="er relationshipLabelBox"></rect><text style="text-anchor: middle; dominant-baseline: middle; font-size: 12px;" y="526.1873168945312" x="547.5301513671875" id="rel4" class="er relationshipLabel">一个</text><rect height="14" width="48" y="291.2967834472656" x="100.97820281982422" class="er relationshipLabelBox"></rect><text style="text-anchor: middle; dominant-baseline: middle; font-size: 12px;" y="298.2967834472656" x="124.97820281982422" id="rel5" class="er relationshipLabel">多个成员</text><rect height="14" width="60" y="313" x="240" class="er relationshipLabelBox"></rect><text style="text-anchor: middle; dominant-baseline: middle; font-size: 12px;" y="320" x="270" id="rel6" class="er relationshipLabel">多个管理员</text><rect height="14" width="60" y="291.2967834472656" x="385.02178955078125" class="er relationshipLabelBox"></rect><text style="text-anchor: middle; dominant-baseline: middle; font-size: 12px;" y="298.2967834472656" x="415.02178955078125" id="rel7" class="er relationshipLabel">一个创建者</text></svg>